<svg width="24" height="24" viewBox="0 0 24 24" fill="none" xmlns="http://www.w3.org/2000/svg">
<path d="M19 7H20V19C20 19.2652 19.8946 19.5196 19.7071 19.7071C19.5196 19.8946 19.2652 20 19 20H17C16.7348 20 16.4804 19.8946 16.2929 19.7071C16.1054 19.5196 16 19.2652 16 19V5C16 4.73478 15.8946 4.48043 15.7071 4.29289C15.5196 4.10536 15.2652 4 15 4H5C4.73478 4 4.48043 4.10536 4.29289 4.29289C4.10536 4.48043 4 4.73478 4 5V19C4 19.2652 4.10536 19.5196 4.29289 19.7071C4.48043 19.8946 4.73478 20 5 20H16.5M7 14H13M7 17H13M13 7H13.5M13 10H13.5M7 7H10V10H7V7Z" stroke="black" stroke-width="2" stroke-linecap="round" stroke-linejoin="round"/>
</svg>
