<svg width="100" height="100" viewBox="0 0 100 100" fill="none" xmlns="http://www.w3.org/2000/svg">
<path fill-rule="evenodd" clip-rule="evenodd" d="M47.7146 6.8458C49.1292 6.05205 50.8709 6.05205 52.2834 6.8458C59.2729 10.7687 80.3063 22.5771 87.2979 26.5C88.7125 27.2916 89.5834 28.7583 89.5834 30.3458C89.5834 38.1916 89.5834 61.8062 89.5834 69.652C89.5834 71.2395 88.7125 72.7062 87.2979 73.5C80.3083 77.4229 59.275 89.2312 52.2834 93.1541C50.8688 93.9479 49.1271 93.9479 47.7146 93.1541C40.725 89.2312 19.6917 77.4229 12.7 73.5C11.2875 72.7062 10.4167 71.2416 10.4167 69.6541C10.4167 61.8083 10.4167 38.1937 10.4167 30.3479C10.4167 28.7604 11.2875 27.2937 12.7021 26.5C19.6896 22.5771 40.7271 10.7687 47.7146 6.8458Z" fill="#283593"/>
<path fill-rule="evenodd" clip-rule="evenodd" d="M11.05 71.675C10.4959 70.9333 10.4167 70.2291 10.4167 69.2812C10.4167 61.4812 10.4167 38.0021 10.4167 30.2C10.4167 28.6208 11.2854 27.1625 12.6959 26.375C19.6604 22.475 40.6229 10.7354 47.5875 6.83331C48.9979 6.04373 50.9084 6.06039 52.3188 6.84998C59.2834 10.75 80.175 22.3896 87.1396 26.2896C87.7021 26.6062 88.1313 26.9875 88.5146 27.4896L11.05 71.675Z" fill="#5C6BC0"/>
<path fill-rule="evenodd" clip-rule="evenodd" d="M50 20.8333C66.0979 20.8333 79.1666 33.902 79.1666 49.9999C79.1666 66.0978 66.0979 79.1666 50 79.1666C33.9021 79.1666 20.8333 66.0978 20.8333 49.9999C20.8333 33.902 33.9021 20.8333 50 20.8333ZM50 35.4166C58.0479 35.4166 64.5833 41.9499 64.5833 49.9999C64.5833 58.0478 58.0479 64.5833 50 64.5833C41.9521 64.5833 35.4166 58.0478 35.4166 49.9999C35.4166 41.9499 41.95 35.4166 50 35.4166Z" fill="white"/>
<path fill-rule="evenodd" clip-rule="evenodd" d="M88.5104 27.5105C89.5854 28.5167 89.5646 30.0334 89.5646 31.2272C89.5646 39.1334 89.4979 61.6209 89.5833 69.5272C89.5917 70.3522 89.3188 71.2209 88.9104 71.8751L49.1521 50.0001L88.5104 27.5105Z" fill="#3949AB"/>
</svg>
