<svg width="24" height="24" viewBox="0 0 24 24" fill="none" xmlns="http://www.w3.org/2000/svg">
<path d="M3 19V6C3 5.73478 3.10536 5.48043 3.29289 5.29289C3.48043 5.10536 3.73478 5 4 5H8.032C8.17857 5.00005 8.32334 5.03233 8.45606 5.09454C8.58877 5.15675 8.70619 5.24738 8.8 5.36L10.7 7.64C10.7938 7.75262 10.9112 7.84325 11.0439 7.90546C11.1767 7.96767 11.3214 7.99995 11.468 8H16C16.2652 8 16.5196 8.10536 16.7071 8.29289C16.8946 8.48043 17 8.73478 17 9V10M3 19L6 11H21L18 19H3Z" stroke="black" stroke-width="2" stroke-linecap="round" stroke-linejoin="round"/>
</svg>
