<svg width="24" height="24" viewBox="0 0 24 24" fill="none" xmlns="http://www.w3.org/2000/svg">
<path fill-rule="evenodd" clip-rule="evenodd" d="M12.006 2C9.62046 2.00107 7.31642 2.86811 5.522 4.44C3.70264 6.03529 2.50169 8.21916 2.129 10.61C1.74807 13.0109 2.21364 15.4696 3.446 17.565C4.66032 19.6356 6.57595 21.2028 8.846 21.983C9.35 22.078 9.529 21.76 9.529 21.489C9.529 21.244 9.519 20.437 9.515 19.581C6.735 20.201 6.149 18.371 6.149 18.371C5.96816 17.7554 5.57484 17.2239 5.039 16.871C4.132 16.234 5.109 16.25 5.109 16.25C5.426 16.294 5.729 16.413 5.994 16.596C6.26 16.779 6.481 17.022 6.641 17.306C6.776 17.559 6.959 17.782 7.179 17.961C7.50658 18.2321 7.90943 18.3963 8.33321 18.4313C8.75699 18.4664 9.18133 18.3706 9.549 18.157C9.594 17.637 9.819 17.151 10.184 16.787C7.965 16.528 5.63 15.649 5.63 11.717C5.61473 10.7031 5.98297 9.72093 6.661 8.967C6.355 8.08212 6.38922 7.11504 6.757 6.254C6.757 6.254 7.596 5.979 9.506 7.304C11.1424 6.84478 12.8736 6.84478 14.51 7.304C16.416 5.979 17.25 6.254 17.25 6.254C17.62 7.112 17.656 8.082 17.351 8.967C18.0287 9.72098 18.3963 10.7033 18.38 11.717C18.38 15.656 16.041 16.522 13.816 16.775C14.0561 17.0258 14.2406 17.3243 14.3576 17.6511C14.4746 17.978 14.5214 18.3258 14.495 18.672C14.495 20.044 14.483 21.149 14.483 21.486C14.483 21.758 14.663 22.078 15.17 21.978C17.4359 21.1942 19.3468 19.6262 20.558 17.557C21.7879 15.4632 22.252 13.0072 21.871 10.609C21.498 8.22036 20.2982 6.03849 18.481 4.444C16.6897 2.87293 14.3896 2.0046 12.007 2H12.006Z" fill="white"/>
</svg>
