<svg width="100" height="100" viewBox="0 0 100 100" fill="none" xmlns="http://www.w3.org/2000/svg">
<path d="M12.5 87.5V12.5H87.5V87.5H12.5Z" fill="#FFD600"/>
<path d="M61.5375 68.6395C62.9792 70.9812 64.5458 73.2249 67.8646 73.2249C70.6521 73.2249 72.1146 71.8395 72.1146 69.9228C72.1146 67.6291 70.6021 66.8145 67.5354 65.4791L65.8542 64.7624C61.0021 62.7041 57.775 60.1249 57.775 54.677C57.775 49.6562 61.6188 45.8353 67.625 45.8353C71.9021 45.8353 74.975 47.3166 77.1917 51.1958L71.9542 54.5437C70.8021 52.4853 69.5563 51.6749 67.625 51.6749C65.6542 51.6749 64.4063 52.9187 64.4063 54.5437C64.4063 56.552 65.6563 57.3645 68.5417 58.6083L70.2229 59.3249C75.9417 61.7603 79.1667 64.2478 79.1667 69.8395C79.1667 75.8645 74.4083 79.1666 68.0208 79.1666C61.7729 79.1666 58.225 76.0312 56.25 72.1499L61.5375 68.6395ZM37.4 68.8103C38.4542 70.6978 40.0563 72.1499 42.3604 72.1499C44.5646 72.1499 45.8333 71.2791 45.8333 67.8937V45.8333H52.7771V68.9603C52.7771 75.9749 48.7083 79.1666 42.7667 79.1666C37.3979 79.1666 33.5229 75.5291 31.9438 72.1499L37.4 68.8103Z" fill="#000001"/>
</svg>
