<svg width="100" height="100" viewBox="0 0 100 100" fill="none" xmlns="http://www.w3.org/2000/svg">
<path d="M49.2708 51.8709C47.1917 48.5188 45.6833 45.7396 43.5937 40.5063C40.0604 31.6667 65.0833 23.6792 54.9375 8.3313C59.3354 18.9334 39.1521 25.4875 37.2771 34.3167C35.5625 42.4375 49.2604 51.8709 49.2708 51.8709Z" fill="#F44336"/>
<path d="M49.7458 35.9792C49.3458 41.2209 54.3896 44.0146 54.5354 47.8438C54.6521 50.9605 51.5208 53.5584 51.5208 53.5584C51.5208 53.5584 57.2042 52.4417 58.9771 47.6875C60.9458 42.4084 55.1563 38.7938 55.7521 34.5667C56.3083 30.5292 68.3167 23.0188 68.3167 23.0188C68.3167 23.0188 50.6479 24.1896 49.7458 35.9792Z" fill="#F44336"/>
<path d="M66.8417 52.1979C70.4958 51.377 73.5771 53.7041 73.5771 56.3854C73.5771 62.4291 65.2 68.1416 65.2 68.1416C65.2 68.1416 78.1688 66.5958 78.1688 56.6728C78.1688 50.1103 71.8 48.4708 66.8417 52.1979ZM60.6854 57.0729C60.6854 57.0729 64.7292 54.1916 65.8062 53.1104C55.8833 55.2166 33.2271 55.4999 33.2271 53.6708C33.2271 51.9853 40.5333 50.2583 40.5333 50.2583C40.5333 50.2583 24.3396 50.0249 24.3396 54.802C24.3396 59.7812 45.5375 60.1374 60.6854 57.0729Z" fill="#1565C0"/>
<path d="M58.1979 61.6061C48.8042 64.729 31.5021 63.7311 36.6271 59.5374C34.1312 59.5374 30.4312 61.5436 30.4312 63.4728C30.4312 67.3415 49.1437 70.329 62.9937 64.6644L58.1979 61.6061Z" fill="#1565C0"/>
<path d="M38.9292 68.2061C35.5208 68.2061 33.3146 70.4019 33.3146 72.0019C33.3146 76.9831 53.6479 77.4852 61.7042 72.429L56.5833 69.029C50.5646 71.6748 35.4458 72.0394 38.9292 68.2061Z" fill="#1565C0"/>
<path d="M75.5854 76.3167C75.5854 74.3667 73.3875 73.448 72.6 73.0084C77.2417 84.2021 26.1062 83.3334 26.1062 76.725C26.1062 75.223 29.8708 73.7521 33.35 74.448L30.3917 72.7C23.4583 71.6125 18.75 74.6605 18.75 77.1188C18.75 88.5834 75.5854 88.0313 75.5854 76.3167Z" fill="#1565C0"/>
<path d="M81.25 80.4248C72.6125 88.9561 50.7104 92.0644 28.6854 86.7936C50.7104 96.1748 81.1458 90.8915 81.25 80.4248Z" fill="#1565C0"/>
</svg>
