<svg width="550" height="550" viewBox="0 0 550 550" fill="none" xmlns="http://www.w3.org/2000/svg">
<circle cx="275" cy="275" r="275" fill="#45C4B0"/>
<path d="M481 504H66C72.1859 431.286 89.7448 399.676 156 366H390C458.016 400.619 475.326 432.386 481 504Z" fill="#3C4F5C" stroke="#3C4F5C"/>
<path d="M341.5 486C341.5 490.142 338.142 493.5 334 493.5C329.858 493.5 326.5 490.142 326.5 486L341.5 486ZM326.5 417L326.5 409.5L341.5 409.5L341.5 417L326.5 417ZM326.5 486L326.5 417L341.5 417L341.5 486L326.5 486Z" fill="#F4F4F4"/>
<path d="M208.5 494C208.5 498.142 211.858 501.5 216 501.5C220.142 501.5 223.5 498.142 223.5 494L208.5 494ZM223.5 417L223.5 409.5L208.5 409.5L208.5 417L223.5 417ZM223.5 494L223.5 417L208.5 417L208.5 494L223.5 494Z" fill="#F4F4F4"/>
<path d="M175 413.631C151.582 399.785 146.775 391.34 140 376.131C188.221 350.566 215.936 340.208 271.5 357.631C327.217 345.695 357.653 348.429 410 376.131C396.639 402.635 383.865 411.39 356 421.131C325.102 431.304 307.654 434.858 276.5 440.631C222.722 431.945 205.626 425.384 175.299 413.746L175 413.631Z" fill="#33434E" stroke="#3C4F5C"/>
<path d="M174.447 396.303C154.614 375.97 136.547 332.303 222.947 320.303H305.447C316.28 317.47 346.247 317.403 379.447 339.803C387.447 342.97 398.647 356.903 379.447 387.303C381.614 389.303 374.947 399.403 330.947 423.803C327.614 427.47 309.847 434.803 265.447 434.803C252.947 435.803 217.247 429.503 174.447 396.303Z" fill="#3C4F5C"/>
<path d="M224 374.5V319H324V374.5C319.037 387.122 316.896 394.275 304.5 406C295.067 413.061 288.669 415.874 273 416.5C262.613 415.779 256.142 413.443 243.5 406C231.589 396.578 227.446 389.596 224 374.5Z" fill="#EDB98A" stroke="#EDB98A"/>
<path d="M224 318V338.5C232.277 342.224 236.044 343.713 241.5 345.5C252.468 347.706 259.536 348.556 273.5 349.5C286.033 349.003 292.524 348.162 303 345.5C311.482 343.345 316.005 341.854 323.5 338.5V318H224Z" fill="#D6A77C" stroke="#D6A77C"/>
<path d="M134 157C137.537 146.812 140.71 141.98 154 139C164.396 171.717 165.112 188.47 154 214.5C142.618 216.341 138.473 212.675 134 200V157Z" fill="#EDB98A" stroke="#EDB98A"/>
<path d="M414.068 157C410.531 146.812 407.358 141.98 394.068 139C383.672 171.717 382.956 188.47 394.068 214.5C405.45 216.341 409.595 212.675 414.068 200V157Z" fill="#EDB98A" stroke="#EDB98A"/>
<circle cx="273.5" cy="143.5" r="122.5" fill="#EDB98A"/>
<circle cx="273.5" cy="209.5" r="122.5" fill="#EDB98A"/>
<rect x="151" y="143" width="245" height="67" fill="#EDB98A"/>
<path d="M151 226.396V139C155.234 142.921 156.53 148.237 157.762 160.849L159.843 207.668L161.924 223.795C174.74 249.746 182.726 262.376 207.699 259.17C217.409 230.91 225.836 218.422 265.437 223.795L274.28 226.396L282.083 223.795C321.312 219.853 332.414 229.238 339.822 259.17C364.588 258.2 375.38 251.042 386.637 221.194C388.558 200.718 389.113 187.997 389.758 164.491C390.626 148.818 392.119 144.218 396 141.081V231.078C389.365 262.233 383.801 276.424 368.951 292.984C353.406 311.285 342.063 316.906 320.575 324.717C303.023 330.194 292.873 331.721 274.28 332C259.106 331.714 248.459 329.364 229.025 324.717C204.41 315.228 191.588 307.806 172.847 285.701C158.439 265.953 153.999 252.769 151 226.396Z" fill="#4A312C"/>
<path d="M273.479 226.5C260.325 224.988 254.552 221.941 249 210H299C296.852 221.108 293.348 225.964 273.479 226.5Z" fill="#C89C74"/>
<path d="M269.284 243.5C271.997 242.74 272.971 241.878 274.284 240C276.931 242.455 278.167 242.944 280.284 243.5C316.821 242.042 324.666 247.263 324.284 272C319.238 290.073 315.103 299.145 293.784 304C288.544 295.865 284.143 293.669 274.284 293C262.583 294.244 258.453 297.327 252.284 304C237.449 298.655 230.065 293.945 224.284 272C222.907 259.522 226.342 253.332 238.784 243.5C250.408 244.457 257.049 244.582 269.284 243.5Z" fill="#EDB98A"/>
<path d="M311.5 252.791C281.537 251.866 264.989 251.614 237 252.791C237.489 269.27 240.682 275.469 249 283.791C258.433 289.924 264.005 291.744 274.5 291.791C286.307 291.458 291.853 289.803 299.5 283.791C310.629 273.778 312.85 266.859 311.5 252.791Z" fill="#473729" stroke="#473729"/>
<path d="M247.5 262.517C243.447 259.394 242.617 257.051 242 252.517C266.689 251.844 280.687 251.812 306 252.517C305.344 256.881 304.635 259.235 300 262.517C279.497 263.12 268.003 263.164 247.5 262.517Z" fill="white" stroke="white"/>
<path d="M184.272 148.563C177.69 149.487 177.148 147.13 178.772 140.563C186.304 131.808 193.214 128.509 208.772 124.563C218.838 123.523 224.963 123.961 236.272 125.563C243.604 129.38 235.736 136.036 236.272 134.563C236.809 133.091 216.631 131.28 204.272 134.563C194.926 138.376 190.877 141.797 184.272 148.563Z" fill="#5F4A37" stroke="#5F4A37"/>
<path d="M200.5 165C196.265 168.358 194.514 170.689 193 176C201.628 170.113 206.665 168.456 216 168.5C224.279 168.644 229.243 170.735 238.5 177C236.975 171.857 235.949 169.029 231 165C225.925 162.569 222.961 161.338 216 161C209.033 161.163 205.725 162.171 200.5 165Z" fill="#5F4A37" stroke="#5F4A37"/>
<path d="M313.5 165C309.265 168.358 307.514 170.689 306 176C314.628 170.113 319.665 168.456 329 168.5C337.279 168.644 342.243 170.735 351.5 177C349.975 171.857 348.949 169.029 344 165C338.925 162.569 335.961 161.338 329 161C322.033 161.163 318.725 162.171 313.5 165Z" fill="#5F4A37" stroke="#5F4A37"/>
<path d="M358.143 148.563C364.725 149.487 365.267 147.13 363.643 140.563C356.111 131.808 349.201 128.509 333.643 124.563C323.577 123.523 317.452 123.961 306.143 125.563C298.811 129.38 306.679 136.036 306.143 134.563C305.606 133.091 325.784 131.28 338.143 134.563C347.489 138.376 351.538 141.797 358.143 148.563Z" fill="#5F4A37" stroke="#5F4A37"/>
<path d="M256.287 275.535C261.242 274.89 264.12 274.759 269.697 275.535L272.38 278.107H275.598L279.353 275.535C283.89 274.892 286.531 274.755 291.691 275.535C303.528 278.669 306.155 280.979 294.373 287.369C286.741 291.24 282.207 291.809 273.989 292C265.03 291.788 260.547 290.577 253.068 287.369C245.425 282.17 246.37 279.594 256.287 275.535Z" fill="#FF4F6D" stroke="#FF4F6D"/>
</svg>
