<svg width="464" height="464" viewBox="0 0 464 464" fill="none" xmlns="http://www.w3.org/2000/svg">
<circle cx="235" cy="229" r="225" fill="#9AEBA3"/>
<path d="M375.086 107.352H88.9141C82.4688 107.352 77.1953 112.625 77.1953 119.07V307.781C77.1953 314.227 82.4688 319.5 88.9141 319.5H375.086C381.531 319.5 386.805 314.227 386.805 307.781V119.07C386.805 112.625 381.531 107.352 375.086 107.352Z" fill="#F2F0EB" stroke="black"/>
<path d="M88.9141 319.5H375.086C381.531 319.5 386.805 314.227 386.805 307.781V299.148H77.1953V307.781C77.1953 314.266 82.4688 319.5 88.9141 319.5Z" fill="#E6E6E6" stroke="black"/>
<path d="M375.086 91.7266H88.9141C73.8359 91.7266 61.5703 103.992 61.5703 119.07V307.781C61.5703 322.859 73.8359 335.125 88.9141 335.125H375.086C390.164 335.125 402.43 322.859 402.43 307.781V119.07C402.43 103.992 390.164 91.7266 375.086 91.7266ZM386.805 299.148V307.781C386.805 314.227 381.531 319.5 375.086 319.5H88.9141C82.4688 319.5 77.1953 314.227 77.1953 307.781V119.07C77.1953 112.625 82.4688 107.352 88.9141 107.352H375.086C381.531 107.352 386.805 112.625 386.805 119.07V299.148ZM296.844 372.273H167.156C162.859 372.273 159.344 368.758 159.344 364.461C159.344 360.164 162.859 356.648 167.156 356.648H296.844C301.141 356.648 304.656 360.164 304.656 364.461C304.656 368.758 301.141 372.273 296.844 372.273Z" fill="#012030" stroke="black"/>
<path d="M81.6484 290.867C80.5938 290.867 79.5391 290.438 78.7969 289.617C77.3516 288.016 77.4297 285.555 79.0313 284.109L171.414 198.328L212.859 243.68L313.992 130.125L385.75 206.805C387.234 208.367 387.156 210.867 385.594 212.312C384.031 213.797 381.57 213.719 380.086 212.156L314.148 141.687L212.977 255.32L170.945 209.344L84.3047 289.812C83.5234 290.516 82.5859 290.867 81.6484 290.867Z" fill="#9AEBA3" stroke="black"/>
<path d="M93.0938 243.68C93.0938 252.258 96.4973 260.485 102.556 266.55C108.614 272.616 116.831 276.023 125.398 276.023C133.966 276.023 142.183 272.616 148.241 266.55C154.3 260.485 157.703 252.258 157.703 243.68C157.703 235.102 154.3 226.875 148.241 220.809C142.183 214.744 133.966 211.336 125.398 211.336C116.831 211.336 108.614 214.744 102.556 220.809C96.4973 226.875 93.0938 235.102 93.0938 243.68Z" fill="#012030" stroke="black"/>
<path d="M102.234 243.68C102.234 246.722 102.834 249.734 103.998 252.544C105.162 255.355 106.868 257.908 109.019 260.059C111.17 262.21 113.724 263.916 116.534 265.08C119.344 266.245 122.356 266.844 125.398 266.844C128.44 266.844 131.453 266.245 134.263 265.08C137.073 263.916 139.627 262.21 141.778 260.059C143.929 257.908 145.635 255.355 146.799 252.544C147.963 249.734 148.562 246.722 148.562 243.68C148.562 237.536 146.122 231.644 141.778 227.3C137.434 222.956 131.542 220.516 125.398 220.516C119.255 220.516 113.363 222.956 109.019 227.3C104.675 231.644 102.234 237.536 102.234 243.68Z" fill="#F2F0EB" stroke="black"/>
<path d="M113.602 243.68C113.602 245.234 113.907 246.773 114.5 248.209C115.092 249.645 115.961 250.95 117.057 252.049C118.152 253.148 119.453 254.02 120.884 254.615C122.315 255.209 123.849 255.516 125.398 255.516C126.948 255.516 128.482 255.209 129.913 254.615C131.344 254.02 132.645 253.148 133.74 252.049C134.836 250.95 135.704 249.645 136.297 248.209C136.89 246.773 137.195 245.234 137.195 243.68C137.195 242.125 136.89 240.586 136.297 239.15C135.704 237.714 134.836 236.409 133.74 235.31C132.645 234.211 131.344 233.34 129.913 232.745C128.482 232.15 126.948 231.844 125.398 231.844C123.849 231.844 122.315 232.15 120.884 232.745C119.453 233.34 118.152 234.211 117.057 235.31C115.961 236.409 115.092 237.714 114.5 239.15C113.907 240.586 113.602 242.125 113.602 243.68Z" fill="#012030" stroke="black"/>
<path d="M258.914 160.867C258.914 165.115 259.75 169.32 261.373 173.245C262.997 177.169 265.376 180.734 268.376 183.738C271.376 186.741 274.937 189.123 278.856 190.749C282.776 192.374 286.976 193.211 291.219 193.211C295.461 193.211 299.662 192.374 303.581 190.749C307.501 189.123 311.062 186.741 314.062 183.738C317.061 180.734 319.441 177.169 321.064 173.245C322.688 169.32 323.523 165.115 323.523 160.867C323.523 156.62 322.688 152.414 321.064 148.49C319.441 144.566 317.061 141 314.062 137.997C311.062 134.993 307.501 132.611 303.581 130.985C299.662 129.36 295.461 128.523 291.219 128.523C286.976 128.523 282.776 129.36 278.856 130.985C274.937 132.611 271.376 134.993 268.376 137.997C265.376 141 262.997 144.566 261.373 148.49C259.75 152.414 258.914 156.62 258.914 160.867Z" fill="#012030" stroke="black"/>
<path d="M268.055 160.867C268.055 167.011 270.495 172.903 274.839 177.247C279.183 181.591 285.075 184.031 291.219 184.031C297.362 184.031 303.254 181.591 307.598 177.247C311.942 172.903 314.383 167.011 314.383 160.867C314.383 154.724 311.942 148.832 307.598 144.488C303.254 140.144 297.362 137.703 291.219 137.703C285.075 137.703 279.183 140.144 274.839 144.488C270.495 148.832 268.055 154.724 268.055 160.867Z" fill="#F2F0EB" stroke="black"/>
<path d="M279.422 160.867C279.422 164.006 280.665 167.017 282.877 169.236C285.089 171.456 288.09 172.703 291.219 172.703C294.347 172.703 297.348 171.456 299.56 169.236C301.773 167.017 303.016 164.006 303.016 160.867C303.016 157.728 301.773 154.718 299.56 152.498C297.348 150.278 294.347 149.031 291.219 149.031C288.09 149.031 285.089 150.278 282.877 152.498C280.665 154.718 279.422 157.728 279.422 160.867Z" fill="#012030" stroke="black"/>
<path d="M312.977 242.781C312.977 247.588 314.882 252.198 318.274 255.598C321.666 258.997 326.266 260.906 331.062 260.906C335.859 260.906 340.459 258.997 343.851 255.598C347.243 252.198 349.148 247.588 349.148 242.781C349.148 237.974 347.243 233.364 343.851 229.965C340.459 226.566 335.859 224.656 331.062 224.656C326.266 224.656 321.666 226.566 318.274 229.965C314.882 233.364 312.977 237.974 312.977 242.781Z" fill="#012030" stroke="black"/>
<path d="M318.094 242.781C318.094 246.221 319.46 249.519 321.892 251.952C324.324 254.384 327.623 255.75 331.062 255.75C334.502 255.75 337.801 254.384 340.233 251.952C342.665 249.519 344.031 246.221 344.031 242.781C344.031 239.342 342.665 236.043 340.233 233.611C337.801 231.179 334.502 229.812 331.062 229.812C327.623 229.812 324.324 231.179 321.892 233.611C319.46 236.043 318.094 239.342 318.094 242.781Z" fill="#F2F0EB" stroke="black"/>
<path d="M324.461 242.781C324.461 244.542 325.156 246.232 326.394 247.477C327.633 248.722 329.312 249.422 331.062 249.422C332.813 249.422 334.492 248.722 335.731 247.477C336.969 246.232 337.664 244.542 337.664 242.781C337.664 241.02 336.969 239.331 335.731 238.086C334.492 236.84 332.813 236.141 331.062 236.141C329.312 236.141 327.633 236.84 326.394 238.086C325.156 239.331 324.461 241.02 324.461 242.781Z" fill="#012030" stroke="black"/>
<path d="M202.625 313.289H139.5C137.547 313.289 135.984 311.727 135.984 309.773C135.984 307.82 137.547 306.258 139.5 306.258H202.625C204.578 306.258 206.141 307.82 206.141 309.773C206.141 311.688 204.539 313.289 202.625 313.289ZM118.172 313.289H107.82C105.867 313.289 104.305 311.727 104.305 309.773C104.305 307.82 105.867 306.258 107.82 306.258H118.172C120.125 306.258 121.688 307.82 121.688 309.773C121.688 311.688 120.086 313.289 118.172 313.289Z" fill="#F2F0EB" stroke="black"/>
</svg>
